<svg width="31" height="15" viewBox="0 0 31 15" fill="none" xmlns="http://www.w3.org/2000/svg">
<g id="Frame" clip-path="url(#clip0_505_1035)">
<g id="Group">
<path id="Vector" d="M0.499756 -4.99988C0.499756 -4.99988 -0.665664 7.26061 4.5623 7.49567H30.4307" stroke="#D4A02E" stroke-width="1.3" stroke-miterlimit="10" stroke-linecap="round"/>
<g id="Group_2">
<path id="Vector_2" d="M17.6977 14.9478C17.9429 14.26 18.0567 13.5723 18.2844 12.9106C18.4595 12.249 18.6697 11.6222 18.9149 11.0389C19.1776 10.473 19.4491 9.92455 19.8256 9.48056C20.1759 9.01915 20.5875 8.6448 21.0516 8.40104L22.3477 7.722L21.2268 6.75566C20.3073 5.96344 19.5629 4.95357 18.9674 3.83923C18.6784 3.27336 18.4157 2.68137 18.2231 2.05455C17.9779 1.42774 17.8728 0.766104 17.7327 0.0609389V0.0435274C17.7239 0.0174102 17.6889 -0.00870708 17.6626 -1.33133e-06C17.6364 0.00870441 17.6188 0.0261159 17.6188 0.0435274C17.2861 2.81195 18.3719 5.71967 20.4736 7.60011L20.4912 7.426C19.2301 8.14858 18.442 9.45444 18.0567 10.7864C17.6626 12.1445 17.6276 13.5548 17.5926 14.9391C17.5926 14.9739 17.6188 14.9913 17.6451 15C17.6714 15 17.6889 14.9826 17.6977 14.9652V14.9478Z" fill="#D4A02E"/>
</g>
<g id="Group_3">
<path id="Vector_3" d="M21.7875 14.9478C22.0327 14.26 22.1465 13.5723 22.3742 12.9106C22.5494 12.249 22.7595 11.6222 23.0047 11.0389C23.2674 10.473 23.5389 9.92455 23.9155 9.48056C24.2657 9.01915 24.6773 8.6448 25.1415 8.40104L26.4375 7.722L25.3078 6.76436C24.3883 5.97214 23.644 4.96227 23.0485 3.83923C22.7595 3.28206 22.5056 2.68137 22.3042 2.05455C22.059 1.42774 21.9539 0.766104 21.8138 0.0609389V0.0435274C21.805 0.0174102 21.7787 -0.00870708 21.7437 -1.33133e-06C21.7174 0.00870441 21.6999 0.0261159 21.6999 0.0435274C21.3672 2.82066 22.453 5.71967 24.5547 7.60882L24.5722 7.426C23.3112 8.14858 22.5231 9.45444 22.1378 10.7864C21.7437 12.1445 21.7087 13.5548 21.6737 14.9391C21.6737 14.9739 21.6999 14.9913 21.7262 15C21.7525 15 21.77 14.9826 21.7787 14.9652L21.7875 14.9478Z" fill="#D4A02E"/>
</g>
</g>
</g>
<defs>
<clipPath id="clip0_505_1035">
<rect width="31" height="15" fill="white" transform="matrix(-1 0 0 1 31 0)"/>
</clipPath>
</defs>
</svg>
