<svg width="47" height="61" viewBox="0 0 47 61" fill="none" xmlns="http://www.w3.org/2000/svg">
<g clip-path="url(#clip0_963_264)">
<path d="M31.8341 28.8613C39.3369 28.8613 45.4192 22.7088 45.4192 15.1193C45.4192 7.52973 39.3369 1.3772 31.8341 1.3772C24.3313 1.3772 18.249 7.52973 18.249 15.1193C18.249 22.7088 24.3313 28.8613 31.8341 28.8613Z" fill="#F4931E"/>
<path d="M11.0883 57.719C7.61553 54.0095 6.46689 49.6037 6.67025 44.7345C6.81104 41.3438 7.64011 38.179 9.45916 35.2923C11.2517 32.3954 13.993 30.2273 17.2046 29.1663C17.837 28.9403 18.4851 28.7707 19.1086 28.5311C20.8047 27.8846 21.7433 26.5102 21.7902 24.6656C21.8148 23.5353 21.7544 22.4051 21.8863 21.3087C22.0728 19.7039 22.7801 18.2069 23.8975 17.0522C24.6886 16.2067 25.2205 15.1172 25.9311 14.1858C26.6417 13.2545 27.4708 12.3435 28.244 11.428L28.4116 11.5252V13.6975L29.3055 12.5424C29.3614 13.2997 29.3994 13.8829 29.4485 14.4661C29.5535 15.68 29.5714 15.7049 30.7067 16.0485C31.3443 16.224 31.9317 16.5498 32.4207 16.9994C32.9098 17.4489 33.2866 18.0092 33.5201 18.6345C33.7749 19.2607 34.3336 19.7806 34.8252 20.2779C35.1671 20.626 35.3012 20.9403 35.1269 21.4082C34.9347 21.9123 34.7895 22.4367 34.5794 22.9318C34.4278 23.3311 34.1699 23.6801 33.8342 23.9403C33.4986 24.2004 33.0982 24.3615 32.6777 24.4056C31.6989 24.5481 31.1424 25.1041 31.1447 26.1169C31.1447 26.908 31.3681 27.6992 31.5469 28.4859C31.6782 28.8906 31.8559 29.2782 32.0765 29.641C33.1939 31.8563 33.1469 34.1236 32.3 36.3864C31.8531 37.5755 31.2631 38.708 30.7357 39.8631C29.31 42.9374 29.1714 46.179 29.6184 49.4658C29.8203 50.7237 30.107 51.9661 30.4765 53.1844C30.9234 54.7893 32.0028 55.7252 33.6252 56.0213C35.9761 56.4486 38.2041 56.1479 40.2064 54.7645C41.4265 53.9236 42.1819 52.7797 42.088 51.2064C42.0299 50.2253 41.2791 49.2985 40.3986 49.0928C39.393 48.8668 38.6421 49.4862 38.6935 50.517C38.7293 51.2426 38.4946 51.7105 37.9672 51.9524C37.6788 52.0871 37.3552 52.1249 37.044 52.0602C36.7328 51.9955 36.4502 51.8318 36.2376 51.593C35.4711 50.804 35.4465 49.8659 35.7616 48.8939C36.6554 46.1044 40.1908 44.9583 42.7406 46.6108C44.83 47.9671 45.7641 50.6209 45.0445 53.2522C44.1506 56.5164 41.8109 58.2253 38.7315 58.9939C37.4459 59.2894 36.1301 59.4298 34.8118 59.4121C21.8282 59.4498 13.8638 59.3064 0.880213 59.2988C0.689965 59.3097 0.499126 59.2953 0.312599 59.2559C0.115949 59.2212 -0.0611634 59.1144 -0.184852 58.956C-0.308541 58.7975 -0.370121 58.5984 -0.35781 58.3969C-0.35781 57.9651 -0.0784729 57.7323 0.312599 57.6419C0.518654 57.6012 0.728426 57.583 0.938315 57.5876L10.7776 57.7461C10.8447 57.7574 10.9139 57.7416 11.0883 57.719ZM25.768 55.6845C25.4864 54.9724 25.1132 54.3282 24.9724 53.6207C24.7087 52.2982 24.6104 50.9442 24.3825 49.6127C24.1143 48.0575 23.9355 46.4593 23.4439 44.9742C22.3265 41.5834 19.8684 39.3228 16.8269 37.6885C15.7632 37.1211 14.6303 36.6893 13.5285 36.1965L13.4548 36.3389C15.2426 37.2002 16.7554 38.4209 18.1476 39.8066C19.8751 41.5155 21.2494 43.4506 21.8148 45.8535C22.6148 49.2578 21.8729 52.3638 19.8527 55.1804L19.4907 55.6845H25.768ZM30.7089 18.7589C31.2452 19.1906 31.5111 19.8733 32.2732 19.8891C32.186 18.5622 31.8843 18.3316 30.7089 18.7589Z" fill="black"/>
</g>
<defs>
<clipPath id="clip0_963_264">
<rect width="45.2564" height="59.8305" fill="white" transform="translate(0 0.584717)"/>
</clipPath>
</defs>
</svg>
