<svg width="31" height="15" viewBox="0 0 31 15" fill="none" xmlns="http://www.w3.org/2000/svg">
<g id="Frame" clip-path="url(#clip0_505_1042)">
<g id="Group">
<path id="Vector" d="M30.5002 -4.99988C30.5002 -4.99988 31.6657 7.26061 26.4377 7.49567H0.569336" stroke="#D4A02E" stroke-width="1.3" stroke-miterlimit="10" stroke-linecap="round"/>
<g id="Group_2">
<path id="Vector_2" d="M13.3023 14.9478C13.0571 14.26 12.9433 13.5723 12.7156 12.9106C12.5405 12.249 12.3303 11.6222 12.0851 11.0389C11.8224 10.473 11.5509 9.92455 11.1744 9.48056C10.8241 9.01915 10.4125 8.6448 9.94839 8.40104L8.65234 7.722L9.77325 6.75566C10.6927 5.96344 11.4371 4.95357 12.0326 3.83923C12.3216 3.27336 12.5843 2.68137 12.7769 2.05455C13.0221 1.42774 13.1272 0.766104 13.2673 0.0609389V0.0435274C13.2761 0.0174102 13.3111 -0.00870708 13.3374 -1.33133e-06C13.3636 0.00870441 13.3812 0.0261159 13.3812 0.0435274C13.7139 2.81195 12.6281 5.71967 10.5264 7.60011L10.5088 7.426C11.7699 8.14858 12.558 9.45444 12.9433 10.7864C13.3374 12.1445 13.3724 13.5548 13.4074 14.9391C13.4074 14.9739 13.3812 14.9913 13.3549 15C13.3286 15 13.3111 14.9826 13.3023 14.9652V14.9478Z" fill="#D4A02E"/>
</g>
<g id="Group_3">
<path id="Vector_3" d="M9.2125 14.9478C8.9673 14.26 8.85346 13.5723 8.62578 12.9106C8.45064 12.249 8.24047 11.6222 7.99527 11.0389C7.73256 10.473 7.46109 9.92455 7.08453 9.48056C6.73425 9.01915 6.32267 8.6448 5.85855 8.40104L4.5625 7.722L5.69216 6.76436C6.61165 5.97214 7.356 4.96227 7.95148 3.83923C8.24047 3.28206 8.49442 2.68137 8.69583 2.05455C8.94103 1.42774 9.04612 0.766104 9.18623 0.0609389V0.0435274C9.19499 0.0174102 9.22126 -0.00870708 9.25628 -1.33133e-06C9.28256 0.00870441 9.30007 0.0261159 9.30007 0.0435274C9.63284 2.82066 8.54696 5.71967 6.44527 7.60882L6.42775 7.426C7.68877 8.14858 8.47691 9.45444 8.86222 10.7864C9.25629 12.1445 9.29131 13.5548 9.32634 14.9391C9.32634 14.9739 9.30007 14.9913 9.2738 15C9.24753 15 9.23001 14.9826 9.22126 14.9652L9.2125 14.9478Z" fill="#D4A02E"/>
</g>
</g>
</g>
<defs>
<clipPath id="clip0_505_1042">
<rect width="31" height="15" fill="white"/>
</clipPath>
</defs>
</svg>
